<mxfile host="Electron" modified="2023-11-04T19:12:38.945Z" agent="Mozilla/5.0 (Windows NT 10.0; Win64; x64) AppleWebKit/537.36 (KHTML, like Gecko) draw.io/21.2.1 Chrome/112.0.5615.87 Electron/24.1.2 Safari/537.36" etag="8pGV5jPULfipTyKTzs8Y" version="21.2.1" type="device">
  <diagram name="Page-1" id="z1S7xWT6islOMcxl1JYw">
    <mxGraphModel dx="2922" dy="2328" grid="1" gridSize="10" guides="1" tooltips="1" connect="1" arrows="1" fold="1" page="1" pageScale="1" pageWidth="850" pageHeight="1100" math="0" shadow="0">
      <root>
        <mxCell id="0" />
        <mxCell id="1" parent="0" />
        <mxCell id="axSa1QGL2reXzrXJXWEd-1" value="User" style="shape=umlActor;verticalLabelPosition=bottom;verticalAlign=top;html=1;" parent="1" vertex="1">
          <mxGeometry x="-440" y="1410" width="30" height="60" as="geometry" />
        </mxCell>
        <mxCell id="axSa1QGL2reXzrXJXWEd-2" value="" style="shape=umlFrame;whiteSpace=wrap;html=1;pointerEvents=0;" parent="1" vertex="1">
          <mxGeometry x="-110" y="-190" width="990" height="3100" as="geometry" />
        </mxCell>
        <mxCell id="axSa1QGL2reXzrXJXWEd-3" value="Create Manual Task" style="ellipse;whiteSpace=wrap;html=1;" parent="1" vertex="1">
          <mxGeometry x="188" y="54" width="140" height="70" as="geometry" />
        </mxCell>
        <mxCell id="axSa1QGL2reXzrXJXWEd-5" value="Enter Task Start Date&amp;nbsp;" style="ellipse;whiteSpace=wrap;html=1;" parent="1" vertex="1">
          <mxGeometry x="355" y="-120" width="140" height="70" as="geometry" />
        </mxCell>
        <mxCell id="axSa1QGL2reXzrXJXWEd-6" value="Enter Task End Date&amp;nbsp;" style="ellipse;whiteSpace=wrap;html=1;" parent="1" vertex="1">
          <mxGeometry x="360" y="-28" width="140" height="70" as="geometry" />
        </mxCell>
        <mxCell id="axSa1QGL2reXzrXJXWEd-7" value="Enter Task Type" style="ellipse;whiteSpace=wrap;html=1;" parent="1" vertex="1">
          <mxGeometry x="378" y="224" width="140" height="71" as="geometry" />
        </mxCell>
        <mxCell id="axSa1QGL2reXzrXJXWEd-9" value="Use" style="endArrow=open;endSize=12;dashed=1;html=1;rounded=0;entryX=0.46;entryY=0.012;entryDx=0;entryDy=0;exitX=0.5;exitY=1;exitDx=0;exitDy=0;entryPerimeter=0;" parent="1" source="axSa1QGL2reXzrXJXWEd-3" target="axSa1QGL2reXzrXJXWEd-46" edge="1">
          <mxGeometry width="160" relative="1" as="geometry">
            <mxPoint x="358" y="119" as="sourcePoint" />
            <mxPoint x="373" y="-106" as="targetPoint" />
          </mxGeometry>
        </mxCell>
        <mxCell id="axSa1QGL2reXzrXJXWEd-10" value="Use" style="endArrow=open;endSize=12;dashed=1;html=1;rounded=0;entryX=0;entryY=0.5;entryDx=0;entryDy=0;" parent="1" source="axSa1QGL2reXzrXJXWEd-3" target="axSa1QGL2reXzrXJXWEd-5" edge="1">
          <mxGeometry width="160" relative="1" as="geometry">
            <mxPoint x="268" y="64" as="sourcePoint" />
            <mxPoint x="383" y="-76" as="targetPoint" />
          </mxGeometry>
        </mxCell>
        <mxCell id="axSa1QGL2reXzrXJXWEd-11" value="Use" style="endArrow=open;endSize=12;dashed=1;html=1;rounded=0;entryX=0.023;entryY=0.3;entryDx=0;entryDy=0;entryPerimeter=0;" parent="1" source="axSa1QGL2reXzrXJXWEd-3" target="axSa1QGL2reXzrXJXWEd-6" edge="1">
          <mxGeometry width="160" relative="1" as="geometry">
            <mxPoint x="314" y="72" as="sourcePoint" />
            <mxPoint x="388" y="29" as="targetPoint" />
          </mxGeometry>
        </mxCell>
        <mxCell id="axSa1QGL2reXzrXJXWEd-12" value="Use" style="endArrow=open;endSize=12;dashed=1;html=1;rounded=0;" parent="1" source="axSa1QGL2reXzrXJXWEd-3" target="axSa1QGL2reXzrXJXWEd-7" edge="1">
          <mxGeometry width="160" relative="1" as="geometry">
            <mxPoint x="324" y="82" as="sourcePoint" />
            <mxPoint x="398" y="39" as="targetPoint" />
          </mxGeometry>
        </mxCell>
        <mxCell id="axSa1QGL2reXzrXJXWEd-13" value="Upload Attachment" style="ellipse;whiteSpace=wrap;html=1;" parent="1" vertex="1">
          <mxGeometry x="610" y="42" width="140" height="70" as="geometry" />
        </mxCell>
        <mxCell id="axSa1QGL2reXzrXJXWEd-16" value="Extends" style="endArrow=block;endSize=16;endFill=0;html=1;rounded=0;exitX=0;exitY=0.5;exitDx=0;exitDy=0;" parent="1" edge="1">
          <mxGeometry width="160" relative="1" as="geometry">
            <mxPoint x="610" y="74" as="sourcePoint" />
            <mxPoint x="327.99835809868" y="74.23972040444755" as="targetPoint" />
            <Array as="points">
              <mxPoint x="550" y="75" />
            </Array>
          </mxGeometry>
        </mxCell>
        <mxCell id="axSa1QGL2reXzrXJXWEd-19" value="Create Task" style="ellipse;whiteSpace=wrap;html=1;" parent="1" vertex="1">
          <mxGeometry x="-10" y="225" width="140" height="70" as="geometry" />
        </mxCell>
        <mxCell id="axSa1QGL2reXzrXJXWEd-21" value="Create Automated Task" style="ellipse;whiteSpace=wrap;html=1;" parent="1" vertex="1">
          <mxGeometry x="180" y="490" width="140" height="70" as="geometry" />
        </mxCell>
        <mxCell id="axSa1QGL2reXzrXJXWEd-27" value="" style="endArrow=none;html=1;rounded=0;exitX=0.01;exitY=0.97;exitDx=0;exitDy=0;exitPerimeter=0;" parent="1" source="axSa1QGL2reXzrXJXWEd-22" target="axSa1QGL2reXzrXJXWEd-21" edge="1">
          <mxGeometry relative="1" as="geometry">
            <mxPoint x="340" y="450" as="sourcePoint" />
            <mxPoint x="500" y="450" as="targetPoint" />
          </mxGeometry>
        </mxCell>
        <mxCell id="axSa1QGL2reXzrXJXWEd-28" value="" style="endArrow=none;html=1;rounded=0;" parent="1" source="axSa1QGL2reXzrXJXWEd-19" target="axSa1QGL2reXzrXJXWEd-22" edge="1">
          <mxGeometry relative="1" as="geometry">
            <mxPoint x="77" y="294" as="sourcePoint" />
            <mxPoint x="223" y="591" as="targetPoint" />
          </mxGeometry>
        </mxCell>
        <mxCell id="axSa1QGL2reXzrXJXWEd-22" value="" style="strokeWidth=2;html=1;shape=mxgraph.flowchart.extract_or_measurement;whiteSpace=wrap;rotation=-90;" parent="1" vertex="1">
          <mxGeometry x="120" y="250" width="40" height="20" as="geometry" />
        </mxCell>
        <mxCell id="axSa1QGL2reXzrXJXWEd-29" value="" style="endArrow=none;html=1;rounded=0;exitX=0.99;exitY=0.97;exitDx=0;exitDy=0;exitPerimeter=0;entryX=0;entryY=1;entryDx=0;entryDy=0;" parent="1" source="axSa1QGL2reXzrXJXWEd-22" target="axSa1QGL2reXzrXJXWEd-3" edge="1">
          <mxGeometry relative="1" as="geometry">
            <mxPoint x="158" y="290" as="sourcePoint" />
            <mxPoint x="256" y="531" as="targetPoint" />
          </mxGeometry>
        </mxCell>
        <mxCell id="axSa1QGL2reXzrXJXWEd-31" value="Enter Automation Start Date&amp;nbsp;" style="ellipse;whiteSpace=wrap;html=1;" parent="1" vertex="1">
          <mxGeometry x="381" y="550" width="140" height="70" as="geometry" />
        </mxCell>
        <mxCell id="axSa1QGL2reXzrXJXWEd-32" value="Enter Automation End Date&amp;nbsp;" style="ellipse;whiteSpace=wrap;html=1;" parent="1" vertex="1">
          <mxGeometry x="378" y="640" width="140" height="70" as="geometry" />
        </mxCell>
        <mxCell id="axSa1QGL2reXzrXJXWEd-35" value="Use" style="endArrow=open;endSize=12;dashed=1;html=1;rounded=0;entryX=0;entryY=0.5;entryDx=0;entryDy=0;exitX=0.936;exitY=0.745;exitDx=0;exitDy=0;exitPerimeter=0;" parent="1" source="axSa1QGL2reXzrXJXWEd-21" target="axSa1QGL2reXzrXJXWEd-31" edge="1">
          <mxGeometry width="160" relative="1" as="geometry">
            <mxPoint x="303" y="570" as="sourcePoint" />
            <mxPoint x="393" y="435" as="targetPoint" />
          </mxGeometry>
        </mxCell>
        <mxCell id="axSa1QGL2reXzrXJXWEd-36" value="Use" style="endArrow=open;endSize=12;dashed=1;html=1;rounded=0;entryX=0.023;entryY=0.3;entryDx=0;entryDy=0;entryPerimeter=0;exitX=1;exitY=1;exitDx=0;exitDy=0;" parent="1" source="axSa1QGL2reXzrXJXWEd-21" target="axSa1QGL2reXzrXJXWEd-32" edge="1">
          <mxGeometry width="160" relative="1" as="geometry">
            <mxPoint x="299.4974746830585" y="611.7487373415292" as="sourcePoint" />
            <mxPoint x="398" y="602" as="targetPoint" />
          </mxGeometry>
        </mxCell>
        <mxCell id="axSa1QGL2reXzrXJXWEd-38" value="Enter Duration&amp;nbsp;" style="ellipse;whiteSpace=wrap;html=1;" parent="1" vertex="1">
          <mxGeometry x="381" y="733" width="140" height="70" as="geometry" />
        </mxCell>
        <mxCell id="axSa1QGL2reXzrXJXWEd-40" value="Use" style="endArrow=open;endSize=12;dashed=1;html=1;rounded=0;entryX=0;entryY=0.5;entryDx=0;entryDy=0;exitX=0.723;exitY=0.997;exitDx=0;exitDy=0;exitPerimeter=0;" parent="1" source="axSa1QGL2reXzrXJXWEd-21" target="axSa1QGL2reXzrXJXWEd-38" edge="1">
          <mxGeometry width="160" relative="1" as="geometry">
            <mxPoint x="309" y="560" as="sourcePoint" />
            <mxPoint x="392" y="604" as="targetPoint" />
          </mxGeometry>
        </mxCell>
        <mxCell id="axSa1QGL2reXzrXJXWEd-41" value="Set Recurrence" style="ellipse;whiteSpace=wrap;html=1;" parent="1" vertex="1">
          <mxGeometry x="610" y="170" width="140" height="70" as="geometry" />
        </mxCell>
        <mxCell id="axSa1QGL2reXzrXJXWEd-42" value="Extends" style="endArrow=block;endSize=16;endFill=0;html=1;rounded=0;exitX=0;exitY=0.5;exitDx=0;exitDy=0;entryX=0.991;entryY=0.62;entryDx=0;entryDy=0;entryPerimeter=0;" parent="1" source="axSa1QGL2reXzrXJXWEd-41" target="axSa1QGL2reXzrXJXWEd-3" edge="1">
          <mxGeometry width="160" relative="1" as="geometry">
            <mxPoint x="620" y="99" as="sourcePoint" />
            <mxPoint x="338" y="99" as="targetPoint" />
            <Array as="points" />
          </mxGeometry>
        </mxCell>
        <mxCell id="axSa1QGL2reXzrXJXWEd-44" value="Extends" style="endArrow=block;endSize=16;endFill=0;html=1;rounded=0;exitX=0;exitY=1;exitDx=0;exitDy=0;" parent="1" source="axSa1QGL2reXzrXJXWEd-41" edge="1">
          <mxGeometry width="160" relative="1" as="geometry">
            <mxPoint x="602" y="530" as="sourcePoint" />
            <mxPoint x="319.99835809868" y="530.2397204044476" as="targetPoint" />
            <Array as="points" />
          </mxGeometry>
        </mxCell>
        <mxCell id="axSa1QGL2reXzrXJXWEd-46" value="Enter Task Name&amp;nbsp;" style="ellipse;whiteSpace=wrap;html=1;" parent="1" vertex="1">
          <mxGeometry x="188" y="250" width="140" height="70" as="geometry" />
        </mxCell>
        <mxCell id="axSa1QGL2reXzrXJXWEd-47" value="Use" style="endArrow=open;endSize=12;dashed=1;html=1;rounded=0;entryX=0.5;entryY=1;entryDx=0;entryDy=0;exitX=0.5;exitY=0;exitDx=0;exitDy=0;" parent="1" source="axSa1QGL2reXzrXJXWEd-21" target="axSa1QGL2reXzrXJXWEd-46" edge="1">
          <mxGeometry width="160" relative="1" as="geometry">
            <mxPoint x="306" y="330" as="sourcePoint" />
            <mxPoint x="300" y="457" as="targetPoint" />
          </mxGeometry>
        </mxCell>
        <mxCell id="axSa1QGL2reXzrXJXWEd-48" value="Use" style="endArrow=open;endSize=12;dashed=1;html=1;rounded=0;exitX=0.643;exitY=0;exitDx=0;exitDy=0;exitPerimeter=0;" parent="1" source="axSa1QGL2reXzrXJXWEd-21" edge="1">
          <mxGeometry width="160" relative="1" as="geometry">
            <mxPoint x="302" y="130" as="sourcePoint" />
            <mxPoint x="400" y="280" as="targetPoint" />
          </mxGeometry>
        </mxCell>
        <mxCell id="ECnSgr_AsbTzaQ6PSxQX-14" value="Set User Profile" style="ellipse;whiteSpace=wrap;html=1;" parent="1" vertex="1">
          <mxGeometry x="-8" y="1343" width="140" height="70" as="geometry" />
        </mxCell>
        <mxCell id="ECnSgr_AsbTzaQ6PSxQX-15" value="Enter Name" style="ellipse;whiteSpace=wrap;html=1;" parent="1" vertex="1">
          <mxGeometry x="244" y="1140" width="140" height="70" as="geometry" />
        </mxCell>
        <mxCell id="ECnSgr_AsbTzaQ6PSxQX-16" value="Enter&amp;nbsp; Surname" style="ellipse;whiteSpace=wrap;html=1;" parent="1" vertex="1">
          <mxGeometry x="260" y="1250" width="140" height="70" as="geometry" />
        </mxCell>
        <mxCell id="ECnSgr_AsbTzaQ6PSxQX-17" value="Enter Birthdate" style="ellipse;whiteSpace=wrap;html=1;" parent="1" vertex="1">
          <mxGeometry x="520" y="1343" width="140" height="71" as="geometry" />
        </mxCell>
        <mxCell id="ECnSgr_AsbTzaQ6PSxQX-18" value="Use" style="endArrow=open;endSize=12;dashed=1;html=1;rounded=0;entryX=0.46;entryY=0.012;entryDx=0;entryDy=0;exitX=0.5;exitY=1;exitDx=0;exitDy=0;entryPerimeter=0;" parent="1" source="ECnSgr_AsbTzaQ6PSxQX-14" target="ECnSgr_AsbTzaQ6PSxQX-23" edge="1">
          <mxGeometry width="160" relative="1" as="geometry">
            <mxPoint x="162" y="1408" as="sourcePoint" />
            <mxPoint x="177" y="1183" as="targetPoint" />
          </mxGeometry>
        </mxCell>
        <mxCell id="ECnSgr_AsbTzaQ6PSxQX-19" value="Use" style="endArrow=open;endSize=12;dashed=1;html=1;rounded=0;entryX=0;entryY=0.5;entryDx=0;entryDy=0;" parent="1" source="ECnSgr_AsbTzaQ6PSxQX-14" target="ECnSgr_AsbTzaQ6PSxQX-15" edge="1">
          <mxGeometry width="160" relative="1" as="geometry">
            <mxPoint x="72" y="1353" as="sourcePoint" />
            <mxPoint x="159.00000000000955" y="1204" as="targetPoint" />
          </mxGeometry>
        </mxCell>
        <mxCell id="ECnSgr_AsbTzaQ6PSxQX-20" value="Use" style="endArrow=open;endSize=12;dashed=1;html=1;rounded=0;entryX=0.023;entryY=0.3;entryDx=0;entryDy=0;entryPerimeter=0;" parent="1" source="ECnSgr_AsbTzaQ6PSxQX-14" target="ECnSgr_AsbTzaQ6PSxQX-16" edge="1">
          <mxGeometry width="160" relative="1" as="geometry">
            <mxPoint x="118" y="1361" as="sourcePoint" />
            <mxPoint x="192" y="1318" as="targetPoint" />
          </mxGeometry>
        </mxCell>
        <mxCell id="ECnSgr_AsbTzaQ6PSxQX-21" value="Use" style="endArrow=open;endSize=12;dashed=1;html=1;rounded=0;" parent="1" source="ECnSgr_AsbTzaQ6PSxQX-14" target="ECnSgr_AsbTzaQ6PSxQX-17" edge="1">
          <mxGeometry width="160" relative="1" as="geometry">
            <mxPoint x="128" y="1371" as="sourcePoint" />
            <mxPoint x="202" y="1328" as="targetPoint" />
          </mxGeometry>
        </mxCell>
        <mxCell id="ECnSgr_AsbTzaQ6PSxQX-22" value="" style="endArrow=none;html=1;rounded=0;" parent="1" edge="1">
          <mxGeometry relative="1" as="geometry">
            <mxPoint x="-65" y="1269" as="sourcePoint" />
            <mxPoint x="-65" y="1269" as="targetPoint" />
          </mxGeometry>
        </mxCell>
        <mxCell id="ECnSgr_AsbTzaQ6PSxQX-23" value="Enter Preferences&amp;nbsp;" style="ellipse;whiteSpace=wrap;html=1;" parent="1" vertex="1">
          <mxGeometry x="250" y="1500" width="140" height="70" as="geometry" />
        </mxCell>
        <mxCell id="ECnSgr_AsbTzaQ6PSxQX-24" value="Enter Area of Interest" style="ellipse;whiteSpace=wrap;html=1;" parent="1" vertex="1">
          <mxGeometry x="260" y="1410" width="140" height="70" as="geometry" />
        </mxCell>
        <mxCell id="ECnSgr_AsbTzaQ6PSxQX-25" value="Use" style="endArrow=open;endSize=12;dashed=1;html=1;rounded=0;entryX=0;entryY=0;entryDx=0;entryDy=0;exitX=1;exitY=1;exitDx=0;exitDy=0;" parent="1" source="ECnSgr_AsbTzaQ6PSxQX-14" target="ECnSgr_AsbTzaQ6PSxQX-24" edge="1">
          <mxGeometry width="160" relative="1" as="geometry">
            <mxPoint x="142" y="1390" as="sourcePoint" />
            <mxPoint x="254" y="1393" as="targetPoint" />
          </mxGeometry>
        </mxCell>
        <mxCell id="ECnSgr_AsbTzaQ6PSxQX-26" value="Update Task" style="ellipse;whiteSpace=wrap;html=1;" parent="1" vertex="1">
          <mxGeometry y="810" width="140" height="70" as="geometry" />
        </mxCell>
        <mxCell id="ECnSgr_AsbTzaQ6PSxQX-27" value="Remove Task" style="ellipse;whiteSpace=wrap;html=1;" parent="1" vertex="1">
          <mxGeometry y="910" width="140" height="70" as="geometry" />
        </mxCell>
        <mxCell id="ECnSgr_AsbTzaQ6PSxQX-28" value="Create Subtask" style="ellipse;whiteSpace=wrap;html=1;" parent="1" vertex="1">
          <mxGeometry y="1000" width="140" height="70" as="geometry" />
        </mxCell>
        <mxCell id="ECnSgr_AsbTzaQ6PSxQX-29" value="Review Existing Task" style="ellipse;whiteSpace=wrap;html=1;" parent="1" vertex="1">
          <mxGeometry y="1100" width="140" height="70" as="geometry" />
        </mxCell>
        <mxCell id="ECnSgr_AsbTzaQ6PSxQX-30" value="Add Friend" style="ellipse;whiteSpace=wrap;html=1;" parent="1" vertex="1">
          <mxGeometry x="-8" y="1530" width="140" height="70" as="geometry" />
        </mxCell>
        <mxCell id="ECnSgr_AsbTzaQ6PSxQX-31" value="Remove Friend" style="ellipse;whiteSpace=wrap;html=1;" parent="1" vertex="1">
          <mxGeometry x="-8" y="1640" width="140" height="70" as="geometry" />
        </mxCell>
        <mxCell id="ECnSgr_AsbTzaQ6PSxQX-32" value="Invite a Person" style="ellipse;whiteSpace=wrap;html=1;" parent="1" vertex="1">
          <mxGeometry x="-8" y="1750" width="140" height="70" as="geometry" />
        </mxCell>
        <mxCell id="ECnSgr_AsbTzaQ6PSxQX-33" value="Create Community" style="ellipse;whiteSpace=wrap;html=1;" parent="1" vertex="1">
          <mxGeometry x="-8" y="1850" width="140" height="70" as="geometry" />
        </mxCell>
        <mxCell id="ECnSgr_AsbTzaQ6PSxQX-34" value="Update Community" style="ellipse;whiteSpace=wrap;html=1;" parent="1" vertex="1">
          <mxGeometry x="-8" y="1960" width="140" height="70" as="geometry" />
        </mxCell>
        <mxCell id="ECnSgr_AsbTzaQ6PSxQX-36" value="Sync Calendars" style="ellipse;whiteSpace=wrap;html=1;" parent="1" vertex="1">
          <mxGeometry y="2070" width="140" height="70" as="geometry" />
        </mxCell>
        <mxCell id="ECnSgr_AsbTzaQ6PSxQX-37" value="View Calendar" style="ellipse;whiteSpace=wrap;html=1;" parent="1" vertex="1">
          <mxGeometry y="2180" width="140" height="70" as="geometry" />
        </mxCell>
        <mxCell id="ECnSgr_AsbTzaQ6PSxQX-38" value="Discover New Events" style="ellipse;whiteSpace=wrap;html=1;" parent="1" vertex="1">
          <mxGeometry y="2290" width="140" height="70" as="geometry" />
        </mxCell>
        <mxCell id="ECnSgr_AsbTzaQ6PSxQX-39" value="View Event Recommendations" style="ellipse;whiteSpace=wrap;html=1;" parent="1" vertex="1">
          <mxGeometry y="2390" width="140" height="70" as="geometry" />
        </mxCell>
        <mxCell id="ECnSgr_AsbTzaQ6PSxQX-40" value="Integrate Own Calendar with Third Party Calendars" style="ellipse;whiteSpace=wrap;html=1;" parent="1" vertex="1">
          <mxGeometry y="2490" width="140" height="70" as="geometry" />
        </mxCell>
        <mxCell id="ECnSgr_AsbTzaQ6PSxQX-41" value="Manage Notifications" style="ellipse;whiteSpace=wrap;html=1;" parent="1" vertex="1">
          <mxGeometry y="2590" width="140" height="70" as="geometry" />
        </mxCell>
        <mxCell id="ECnSgr_AsbTzaQ6PSxQX-42" value="Provide Feedback" style="ellipse;whiteSpace=wrap;html=1;" parent="1" vertex="1">
          <mxGeometry y="2690" width="140" height="70" as="geometry" />
        </mxCell>
        <mxCell id="ECnSgr_AsbTzaQ6PSxQX-43" value="View User Manual" style="ellipse;whiteSpace=wrap;html=1;" parent="1" vertex="1">
          <mxGeometry y="2790" width="140" height="70" as="geometry" />
        </mxCell>
        <mxCell id="ECnSgr_AsbTzaQ6PSxQX-45" value="" style="endArrow=none;html=1;rounded=0;entryX=0;entryY=0.5;entryDx=0;entryDy=0;exitX=0.5;exitY=0.5;exitDx=0;exitDy=0;exitPerimeter=0;" parent="1" source="axSa1QGL2reXzrXJXWEd-1" target="axSa1QGL2reXzrXJXWEd-19" edge="1">
          <mxGeometry relative="1" as="geometry">
            <mxPoint x="-425" y="1410" as="sourcePoint" />
            <mxPoint x="420" y="1250" as="targetPoint" />
          </mxGeometry>
        </mxCell>
        <mxCell id="ECnSgr_AsbTzaQ6PSxQX-46" value="" style="endArrow=none;html=1;rounded=0;entryX=0;entryY=0.5;entryDx=0;entryDy=0;" parent="1" target="ECnSgr_AsbTzaQ6PSxQX-26" edge="1">
          <mxGeometry relative="1" as="geometry">
            <mxPoint x="-425" y="1440" as="sourcePoint" />
            <mxPoint y="270" as="targetPoint" />
          </mxGeometry>
        </mxCell>
        <mxCell id="ECnSgr_AsbTzaQ6PSxQX-47" value="" style="endArrow=none;html=1;rounded=0;entryX=0;entryY=0.5;entryDx=0;entryDy=0;exitX=1;exitY=0.3333333333333333;exitDx=0;exitDy=0;exitPerimeter=0;" parent="1" source="axSa1QGL2reXzrXJXWEd-1" target="ECnSgr_AsbTzaQ6PSxQX-27" edge="1">
          <mxGeometry relative="1" as="geometry">
            <mxPoint x="-375" y="1120" as="sourcePoint" />
            <mxPoint x="10" y="855" as="targetPoint" />
          </mxGeometry>
        </mxCell>
        <mxCell id="ECnSgr_AsbTzaQ6PSxQX-48" value="" style="endArrow=none;html=1;rounded=0;exitX=0.5;exitY=0.5;exitDx=0;exitDy=0;exitPerimeter=0;" parent="1" source="axSa1QGL2reXzrXJXWEd-1" target="ECnSgr_AsbTzaQ6PSxQX-28" edge="1">
          <mxGeometry relative="1" as="geometry">
            <mxPoint x="-365" y="1130" as="sourcePoint" />
            <mxPoint x="20" y="865" as="targetPoint" />
          </mxGeometry>
        </mxCell>
        <mxCell id="ECnSgr_AsbTzaQ6PSxQX-49" value="" style="endArrow=none;html=1;rounded=0;exitX=1;exitY=0.3333333333333333;exitDx=0;exitDy=0;exitPerimeter=0;" parent="1" source="axSa1QGL2reXzrXJXWEd-1" target="ECnSgr_AsbTzaQ6PSxQX-29" edge="1">
          <mxGeometry relative="1" as="geometry">
            <mxPoint x="-355" y="1140" as="sourcePoint" />
            <mxPoint x="30" y="875" as="targetPoint" />
          </mxGeometry>
        </mxCell>
        <mxCell id="ECnSgr_AsbTzaQ6PSxQX-50" value="" style="endArrow=none;html=1;rounded=0;entryX=0.043;entryY=0.233;entryDx=0;entryDy=0;entryPerimeter=0;exitX=0.5;exitY=0.5;exitDx=0;exitDy=0;exitPerimeter=0;" parent="1" source="axSa1QGL2reXzrXJXWEd-1" target="ECnSgr_AsbTzaQ6PSxQX-14" edge="1">
          <mxGeometry relative="1" as="geometry">
            <mxPoint x="-370" y="1140" as="sourcePoint" />
            <mxPoint x="10" y="1146" as="targetPoint" />
          </mxGeometry>
        </mxCell>
        <mxCell id="ECnSgr_AsbTzaQ6PSxQX-51" value="" style="endArrow=none;html=1;rounded=0;entryX=0.035;entryY=0.222;entryDx=0;entryDy=0;entryPerimeter=0;exitX=0.5;exitY=0.5;exitDx=0;exitDy=0;exitPerimeter=0;" parent="1" source="axSa1QGL2reXzrXJXWEd-1" target="ECnSgr_AsbTzaQ6PSxQX-30" edge="1">
          <mxGeometry relative="1" as="geometry">
            <mxPoint x="-370" y="1150" as="sourcePoint" />
            <mxPoint x="20" y="1156" as="targetPoint" />
          </mxGeometry>
        </mxCell>
        <mxCell id="ECnSgr_AsbTzaQ6PSxQX-52" value="" style="endArrow=none;html=1;rounded=0;entryX=0.067;entryY=0.235;entryDx=0;entryDy=0;entryPerimeter=0;" parent="1" target="ECnSgr_AsbTzaQ6PSxQX-31" edge="1">
          <mxGeometry relative="1" as="geometry">
            <mxPoint x="-425" y="1440" as="sourcePoint" />
            <mxPoint x="30" y="1166" as="targetPoint" />
          </mxGeometry>
        </mxCell>
        <mxCell id="ECnSgr_AsbTzaQ6PSxQX-53" value="" style="endArrow=none;html=1;rounded=0;entryX=0;entryY=0.5;entryDx=0;entryDy=0;exitX=0.5;exitY=0.5;exitDx=0;exitDy=0;exitPerimeter=0;" parent="1" source="axSa1QGL2reXzrXJXWEd-1" target="ECnSgr_AsbTzaQ6PSxQX-32" edge="1">
          <mxGeometry relative="1" as="geometry">
            <mxPoint x="-390" y="1160" as="sourcePoint" />
            <mxPoint x="40" y="1176" as="targetPoint" />
          </mxGeometry>
        </mxCell>
        <mxCell id="ECnSgr_AsbTzaQ6PSxQX-54" value="" style="endArrow=none;html=1;rounded=0;entryX=0;entryY=0.5;entryDx=0;entryDy=0;exitX=0.5;exitY=0.5;exitDx=0;exitDy=0;exitPerimeter=0;" parent="1" source="axSa1QGL2reXzrXJXWEd-1" target="ECnSgr_AsbTzaQ6PSxQX-33" edge="1">
          <mxGeometry relative="1" as="geometry">
            <mxPoint x="-400" y="1170" as="sourcePoint" />
            <mxPoint x="50" y="1186" as="targetPoint" />
          </mxGeometry>
        </mxCell>
        <mxCell id="ECnSgr_AsbTzaQ6PSxQX-55" value="" style="endArrow=none;html=1;rounded=0;entryX=0;entryY=0;entryDx=0;entryDy=0;exitX=0.5;exitY=0.5;exitDx=0;exitDy=0;exitPerimeter=0;" parent="1" source="axSa1QGL2reXzrXJXWEd-1" target="ECnSgr_AsbTzaQ6PSxQX-34" edge="1">
          <mxGeometry relative="1" as="geometry">
            <mxPoint x="-410" y="1180" as="sourcePoint" />
            <mxPoint x="2" y="1895" as="targetPoint" />
          </mxGeometry>
        </mxCell>
        <mxCell id="ECnSgr_AsbTzaQ6PSxQX-57" value="" style="endArrow=none;html=1;rounded=0;entryX=0;entryY=0.5;entryDx=0;entryDy=0;exitX=0.5;exitY=0.5;exitDx=0;exitDy=0;exitPerimeter=0;" parent="1" source="axSa1QGL2reXzrXJXWEd-1" target="ECnSgr_AsbTzaQ6PSxQX-36" edge="1">
          <mxGeometry relative="1" as="geometry">
            <mxPoint x="-415" y="1450" as="sourcePoint" />
            <mxPoint x="23" y="1980" as="targetPoint" />
          </mxGeometry>
        </mxCell>
        <mxCell id="ECnSgr_AsbTzaQ6PSxQX-58" value="" style="endArrow=none;html=1;rounded=0;entryX=0;entryY=0.5;entryDx=0;entryDy=0;exitX=0.5;exitY=0.5;exitDx=0;exitDy=0;exitPerimeter=0;" parent="1" source="axSa1QGL2reXzrXJXWEd-1" target="ECnSgr_AsbTzaQ6PSxQX-37" edge="1">
          <mxGeometry relative="1" as="geometry">
            <mxPoint x="-405" y="1460" as="sourcePoint" />
            <mxPoint x="33" y="1990" as="targetPoint" />
          </mxGeometry>
        </mxCell>
        <mxCell id="ECnSgr_AsbTzaQ6PSxQX-59" value="" style="endArrow=none;html=1;rounded=0;entryX=0;entryY=0.5;entryDx=0;entryDy=0;exitX=0.5;exitY=0.5;exitDx=0;exitDy=0;exitPerimeter=0;" parent="1" source="axSa1QGL2reXzrXJXWEd-1" target="ECnSgr_AsbTzaQ6PSxQX-38" edge="1">
          <mxGeometry relative="1" as="geometry">
            <mxPoint x="-395" y="1470" as="sourcePoint" />
            <mxPoint x="43" y="2000" as="targetPoint" />
          </mxGeometry>
        </mxCell>
        <mxCell id="ECnSgr_AsbTzaQ6PSxQX-60" value="" style="endArrow=none;html=1;rounded=0;entryX=0;entryY=0.5;entryDx=0;entryDy=0;exitX=0.5;exitY=0.5;exitDx=0;exitDy=0;exitPerimeter=0;" parent="1" source="axSa1QGL2reXzrXJXWEd-1" target="ECnSgr_AsbTzaQ6PSxQX-39" edge="1">
          <mxGeometry relative="1" as="geometry">
            <mxPoint x="-420" y="1440" as="sourcePoint" />
            <mxPoint x="53" y="2010" as="targetPoint" />
          </mxGeometry>
        </mxCell>
        <mxCell id="ECnSgr_AsbTzaQ6PSxQX-61" value="" style="endArrow=none;html=1;rounded=0;entryX=0;entryY=0.5;entryDx=0;entryDy=0;exitX=0.5;exitY=0.5;exitDx=0;exitDy=0;exitPerimeter=0;" parent="1" source="axSa1QGL2reXzrXJXWEd-1" target="ECnSgr_AsbTzaQ6PSxQX-40" edge="1">
          <mxGeometry relative="1" as="geometry">
            <mxPoint x="-420" y="1450" as="sourcePoint" />
            <mxPoint x="63" y="2020" as="targetPoint" />
          </mxGeometry>
        </mxCell>
        <mxCell id="ECnSgr_AsbTzaQ6PSxQX-62" value="" style="endArrow=none;html=1;rounded=0;entryX=0;entryY=0.5;entryDx=0;entryDy=0;exitX=0.5;exitY=0.5;exitDx=0;exitDy=0;exitPerimeter=0;" parent="1" source="axSa1QGL2reXzrXJXWEd-1" target="ECnSgr_AsbTzaQ6PSxQX-41" edge="1">
          <mxGeometry relative="1" as="geometry">
            <mxPoint x="-420" y="1440" as="sourcePoint" />
            <mxPoint x="73" y="2030" as="targetPoint" />
          </mxGeometry>
        </mxCell>
        <mxCell id="ECnSgr_AsbTzaQ6PSxQX-63" value="" style="endArrow=none;html=1;rounded=0;entryX=0;entryY=0.5;entryDx=0;entryDy=0;exitX=0.5;exitY=0.5;exitDx=0;exitDy=0;exitPerimeter=0;" parent="1" source="axSa1QGL2reXzrXJXWEd-1" target="ECnSgr_AsbTzaQ6PSxQX-42" edge="1">
          <mxGeometry relative="1" as="geometry">
            <mxPoint x="-355" y="1510" as="sourcePoint" />
            <mxPoint x="83" y="2040" as="targetPoint" />
          </mxGeometry>
        </mxCell>
        <mxCell id="ECnSgr_AsbTzaQ6PSxQX-64" value="" style="endArrow=none;html=1;rounded=0;entryX=0;entryY=0.5;entryDx=0;entryDy=0;exitX=0.5;exitY=0.5;exitDx=0;exitDy=0;exitPerimeter=0;" parent="1" source="axSa1QGL2reXzrXJXWEd-1" target="ECnSgr_AsbTzaQ6PSxQX-43" edge="1">
          <mxGeometry relative="1" as="geometry">
            <mxPoint x="-345" y="1520" as="sourcePoint" />
            <mxPoint x="93" y="2050" as="targetPoint" />
          </mxGeometry>
        </mxCell>
        <mxCell id="ECnSgr_AsbTzaQ6PSxQX-66" value="&lt;font style=&quot;font-size: 32px;&quot;&gt;ToGather&lt;/font&gt;" style="text;html=1;align=center;verticalAlign=middle;resizable=0;points=[];autosize=1;strokeColor=none;fillColor=none;" parent="1" vertex="1">
          <mxGeometry x="305" y="-190" width="160" height="50" as="geometry" />
        </mxCell>
        <mxCell id="ECnSgr_AsbTzaQ6PSxQX-67" value="Calendar Application" style="html=1;whiteSpace=wrap;" parent="1" vertex="1">
          <mxGeometry x="930" y="2503" width="110" height="50" as="geometry" />
        </mxCell>
        <mxCell id="ECnSgr_AsbTzaQ6PSxQX-68" value="" style="endArrow=none;html=1;rounded=0;entryX=0;entryY=0.5;entryDx=0;entryDy=0;exitX=1;exitY=0.5;exitDx=0;exitDy=0;" parent="1" source="ECnSgr_AsbTzaQ6PSxQX-40" target="ECnSgr_AsbTzaQ6PSxQX-67" edge="1">
          <mxGeometry relative="1" as="geometry">
            <mxPoint x="-415" y="1450" as="sourcePoint" />
            <mxPoint x="10" y="2835" as="targetPoint" />
          </mxGeometry>
        </mxCell>
      </root>
    </mxGraphModel>
  </diagram>
</mxfile>
